<?xml version="1.0" encoding="utf-8"?>
<!-- Generator: Adobe Illustrator 21.0.0, SVG Export Plug-In . SVG Version: 6.00 Build 0)  -->
<svg version="1.1" xmlns="http://www.w3.org/2000/svg" xmlns:xlink="http://www.w3.org/1999/xlink" x="0px" y="0px"
	 viewBox="0 0 200 200" style="enable-background:new 0 0 200 200;" xml:space="preserve">
<style type="text/css">
	.st0{fill:#97DFFA;}
	.st1{display:none;}
	.st2{display:inline;fill:#237397;}
	.st3{fill:#237397;}
</style>
<g id="Слой_1">
	<rect class="st0" width="200" height="200"/>
</g>
<g id="Слой_2">
	<g class="st1">
		<path class="st2" d="M111.1,46.4v81.4h17.1v14.5H76v-14.5h19.2V62.9L76,70.1V55.3l23.3-8.9H111.1z"/>
	</g>
	<g>
		<path class="st3" d="M102,45.4c19.3,0,33.4,9,33.4,26.7c0,16.1-13.4,25.6-26.3,33.3c-12.3,7.3-23.9,13.1-24.1,22.7l51-0.1v14.4
			h-69V135c0-23.2,17.2-32,31.6-40.6c11-6.4,20.7-11.3,20.7-22.1c0-8.3-7.1-12.6-18.9-12.6c-9.7,0-20.1,3.4-30.2,10.6V55
			C80.2,48.3,91,45.4,102,45.4z"/>
	</g>
</g>
</svg>
