<?xml version="1.0" encoding="utf-8"?>
<!-- Generator: Adobe Illustrator 21.0.0, SVG Export Plug-In . SVG Version: 6.00 Build 0)  -->
<svg version="1.1" xmlns="http://www.w3.org/2000/svg" xmlns:xlink="http://www.w3.org/1999/xlink" x="0px" y="0px"
	 viewBox="0 0 200 200" style="enable-background:new 0 0 200 200;" xml:space="preserve">
<style type="text/css">
	.st0{fill:#97DFFA;}
	.st1{display:none;}
	.st2{display:inline;fill:#237397;}
	.st3{fill:#237397;}
</style>
<g id="Слой_1">
	<rect class="st0" width="200" height="200"/>
</g>
<g id="Слой_2">
	<g class="st1">
		<path class="st2" d="M111.1,46.4v81.4h17.1v14.5H76v-14.5h19.2V62.9L76,70.1V55.3l23.3-8.9H111.1z"/>
	</g>
	<g>
		<path class="st3" d="M119,92.1c9,2.8,18,9.9,18,24.3c0,19.2-16.9,27.7-36.4,27.7c-12.9,0-22.9-2-33-6.3v-15.4
			c10.2,5.6,20,7.4,31.7,7.3c12.6-0.1,22.4-4.2,22.4-15s-8.8-14.3-20.1-14.3H86.6V86.1l13.3,0.1c11.7,0,18-5,18-12.9
			c0-8.5-7.1-13.6-20.1-13.6c-9.4,0-19.2,2.5-28.4,7.8V52.4c8.5-4.5,18.7-7,30.5-7c19.6,0,33.3,9.8,33.3,26
			C133.2,81.3,127.6,89.3,119,92.1z"/>
	</g>
</g>
</svg>
