<?xml version="1.0" encoding="utf-8"?>
<!-- Generator: Adobe Illustrator 21.0.0, SVG Export Plug-In . SVG Version: 6.00 Build 0)  -->
<svg version="1.1" xmlns="http://www.w3.org/2000/svg" xmlns:xlink="http://www.w3.org/1999/xlink" x="0px" y="0px"
	 viewBox="0 0 200 200" style="enable-background:new 0 0 200 200;" xml:space="preserve">
<style type="text/css">
	.st0{fill:#97DFFA;}
	.st1{display:none;}
	.st2{display:inline;fill:#237397;}
	.st3{display:inline;}
	.st4{fill:#237397;}
</style>
<g id="Слой_1">
	<g id="Слой_1_1_">
		<rect class="st0" width="200" height="200"/>
	</g>
	<g id="Слой_2" class="st1">
		<g>
			<path class="st2" d="M111.1,46.4v81.4h17.1v14.5H76v-14.5h19.2V62.9L76,70.1V55.3l23.3-8.9H111.1z"/>
		</g>
		<g class="st3">
			<path class="st4" d="M123.3,47.2V109h16.4v13.8h-16.4v19.4h-15.4v-19.4H56.3v-13.6l50.6-62.1h16.4V47.2z M107.9,67.5L74,109h33.8
				L107.9,67.5L107.9,67.5z"/>
		</g>
	</g>
</g>
<g id="Слой_2_1_">
	<g>
		<path class="st4" d="M69.1,137.5v-13.8c7.6,4.7,16.2,7.1,25.7,7.1c6.8,0,12.5-1.7,17-5.1c4.7-3.5,7-8,7-13.8
			c0-10.9-9.2-18.6-23.6-18.6c-7.2,0-14.7,1.3-22.5,4l6.2-48.9h48.2v12.9H89.6l-2.7,21.6c3.5-0.9,7.4-1.5,11.8-1.5
			c10.2,0,18.5,2.8,25.1,8.4c6.6,5.6,9.9,13,9.9,22.1c0,9.8-3.6,17.6-11,23.3c-7.2,5.8-16.3,8.7-27.2,8.7
			C85.4,143.9,76.6,141.8,69.1,137.5z"/>
	</g>
</g>
</svg>
