<svg xmlns="http://www.w3.org/2000/svg" viewBox="0 0 200 200"><title>6-01</title><rect width="200" height="200" style="fill:#97dffa"/><path d="M77.45,132.28C71,124.51,67.8,113.79,67.8,100c0-15.14,3.75-27.74,11.12-37.93s17.69-15.41,30.82-15.41a36.58,36.58,0,0,1,20.64,5.9v13.4a33.59,33.59,0,0,0-19-5.9c-9,0-15.95,3.08-20.77,9.38s-7.24,13.8-7.64,22.78c5.49-7.1,13.54-10.59,24.26-10.59a29.85,29.85,0,0,1,21.44,8.31c5.76,5.49,8.71,12.6,8.71,21.58,0,9.52-3.22,17.42-9.51,23.45s-14.07,9-23.45,9Q87.3,143.94,77.45,132.28Zm39.8-6.7a18.9,18.9,0,0,0,5.5-13.8,16.65,16.65,0,0,0-5.63-13.13,19.72,19.72,0,0,0-13.8-5.09,22.2,22.2,0,0,0-13,4.29,20,20,0,0,0-7.77,10.59c1.07,13.94,8.58,22.51,20.91,22.51A18.79,18.79,0,0,0,117.26,125.58Z" style="fill:#237397"/></svg>