<?xml version="1.0" encoding="utf-8"?>
<!-- Generator: Adobe Illustrator 21.0.0, SVG Export Plug-In . SVG Version: 6.00 Build 0)  -->
<svg version="1.1" xmlns="http://www.w3.org/2000/svg" xmlns:xlink="http://www.w3.org/1999/xlink" x="0px" y="0px"
	 viewBox="0 0 200 200" style="enable-background:new 0 0 200 200;" xml:space="preserve">
<style type="text/css">
	.st0{fill:#97DFFA;}
	.st1{display:none;}
	.st2{display:inline;fill:#237397;}
	.st3{display:inline;}
	.st4{fill:#237397;}
</style>
<g id="Слой_1">
	<g id="Слой_1_1_">
		<rect class="st0" width="200" height="200"/>
	</g>
	<g id="Слой_2" class="st1">
		<g>
			<path class="st2" d="M111.1,46.4v81.4h17.1v14.5H76v-14.5h19.2V62.9L76,70.1V55.3l23.3-8.9H111.1z"/>
		</g>
		<g class="st3">
			<path class="st4" d="M123.3,47.2V109h16.4v13.8h-16.4v19.4h-15.4v-19.4H56.3v-13.6l50.6-62.1h16.4V47.2z M107.9,67.5L74,109h33.8
				L107.9,67.5L107.9,67.5z"/>
		</g>
	</g>
</g>
<g id="Слой_2_1_">
	<g>
		<path class="st4" d="M139.2,116.1c0,8.6-3.5,15.4-10.6,20.4c-7,5-15.7,7.5-26,7.5s-19-2.5-26.1-7.5c-7.1-5-10.6-11.8-10.6-20.4
			c0-11.3,7.5-20,18.8-23.7C76,88.6,70.5,81.2,70.5,72c0-7.5,3.1-13.5,9.1-18.2c6-4.7,13.8-7.1,23.1-7.1s16.9,2.4,22.9,7.1
			c6,4.7,9.1,10.7,9.1,18.2c0,9.2-5.5,16.6-14.1,20.4C131.9,96.1,139.2,104.8,139.2,116.1z M117.9,103.5c-4-3.1-9.1-4.6-15.3-4.6
			c-6.2,0-11.3,1.5-15.4,4.6c-4.2,3.1-6.2,7-6.2,11.7c0,4.7,2,8.6,6.2,11.7s9.4,4.7,15.4,4.7c6,0,11.1-1.6,15.3-4.7s6.2-7,6.2-11.7
			C124.1,110.4,122.1,106.6,117.9,103.5z M120.6,73.2c0-8.4-7.8-14.3-18-14.3c-10.3,0-18.1,5.9-18.1,14.3c0,8.4,7.8,14.3,18.1,14.3
			C112.8,87.5,120.6,81.6,120.6,73.2z"/>
	</g>
</g>
</svg>
