<?xml version="1.0" encoding="utf-8"?>
<!-- Generator: Adobe Illustrator 21.0.0, SVG Export Plug-In . SVG Version: 6.00 Build 0)  -->
<svg version="1.1" xmlns="http://www.w3.org/2000/svg" xmlns:xlink="http://www.w3.org/1999/xlink" x="0px" y="0px"
	 viewBox="0 0 200 200" style="enable-background:new 0 0 200 200;" xml:space="preserve">
<style type="text/css">
	.st0{fill:#97DFFA;}
	.st1{display:none;}
	.st2{display:inline;fill:#237397;}
	.st3{display:inline;}
	.st4{fill:#237397;}
</style>
<g id="Слой_1">
	<g id="Слой_1_1_">
		<rect class="st0" width="200" height="200"/>
	</g>
	<g id="Слой_2" class="st1">
		<g>
			<path class="st2" d="M111.1,46.4v81.4h17.1v14.5H76v-14.5h19.2V62.9L76,70.1V55.3l23.3-8.9H111.1z"/>
		</g>
		<g class="st3">
			<path class="st4" d="M123.3,47.2V109h16.4v13.8h-16.4v19.4h-15.4v-19.4H56.3v-13.6l50.6-62.1h16.4V47.2z M107.9,67.5L74,109h33.8
				L107.9,67.5L107.9,67.5z"/>
		</g>
	</g>
</g>
<g id="Слой_2_1_">
	<g>
		<path class="st4" d="M127.6,58.3c6.6,7.8,9.8,18.5,9.8,32.3c0,15.1-3.8,27.7-11.1,38.1c-7.4,10.2-17.7,15.3-30.8,15.3
			c-7.9,0-14.7-2-20.6-5.9v-13.4c5.8,3.9,12.2,5.9,19,5.9c9,0,15.9-3.1,20.6-9.4c4.8-6.3,7.4-13.8,7.8-22.8
			c-5.5,7.1-13.5,10.6-24.3,10.6c-8.6,0-15.8-2.7-21.6-8.2c-5.8-5.5-8.6-12.7-8.6-21.7c0-9.5,3.1-17.3,9.4-23.3s14.2-9.1,23.6-9.1
			C112.2,46.6,121.1,50.5,127.6,58.3z M87.9,65.1c-3.6,3.6-5.5,8.2-5.5,13.7c0,5.5,1.9,9.9,5.5,13.3c3.8,3.4,8.4,5,13.9,5
			c4.7,0,9-1.5,12.9-4.3c4-2.8,6.7-6.4,7.9-10.6c-1.1-13.9-8.6-22.5-20.9-22.5C96.2,59.6,91.5,61.5,87.9,65.1z"/>
	</g>
</g>
</svg>
